<svg width="300" height="67" viewBox="0 0 300 67" fill="none" xmlns="http://www.w3.org/2000/svg">
  <g clip-path="url(#clip0_1180_10861)">
    <path
      d="M74.9886 59.0968C73.9407 67.0426 63.0301 68.7808 59.3303 61.7189C58.799 60.6562 57.2346 57.607 56.6685 56.4995C54.3692 52.0846 51.459 46.1997 48.4793 40.0765C47.9281 38.9442 47.3818 37.802 46.8206 36.6598C42.4454 27.6214 38.1547 18.1311 35.7014 12.9116C35.5031 12.4881 35.1913 12.1277 34.8007 11.8705C34.4101 11.6133 33.9559 11.4692 33.4885 11.4543C33.021 11.4394 32.5586 11.5542 32.1524 11.786C31.7462 12.0178 31.4121 12.3576 31.1872 12.7676C25.6698 22.7744 11.9185 47.9478 6.73884 57.1997C6.73884 57.1997 6.73884 57.1997 6.73884 57.2345C6.68828 57.3191 6.64349 57.4071 6.60475 57.4977C6.60475 57.5623 6.54516 57.6219 6.52529 57.6914C6.09181 58.6543 5.97655 59.7303 6.19623 60.7632C6.41592 61.796 6.95912 62.732 7.74696 63.4351C8.5348 64.1383 9.52626 64.572 10.5774 64.6733C11.6285 64.7746 12.6845 64.5381 13.5921 63.9984C13.3438 64.1672 13.0955 64.346 12.8621 64.495C12.7081 64.5993 12.6337 64.6639 12.4151 64.793L11.7546 65.1555C4.86163 68.7659 -2.62235 61.0187 0.928445 54.1605C6.45577 42.8972 18.0319 19.3329 23.4301 8.30305C24.0558 7.12608 24.7759 5.46738 25.5009 4.35497C29.1461 -1.40576 38.1646 -1.45046 41.9339 4.21592C42.4323 4.95967 42.858 5.74961 43.2053 6.57483C44.7845 10.0511 46.5524 13.7658 48.087 17.2272C50.2423 21.9649 52.333 26.7821 54.3841 31.629C54.8807 32.8408 55.417 34.0575 55.9236 35.2742C58.4066 41.2336 60.8897 47.2674 63.3281 53.2169L64.8179 56.8273L65.5728 58.635C65.6673 58.8064 65.7718 58.9723 65.8857 59.1316C66.5163 59.9013 68.0658 59.6282 68.5922 58.8535C68.8134 58.4966 68.9335 58.0864 68.9398 57.6666C69.0838 52.025 69.2378 41.1889 69.3967 34.4746C69.3973 34.3961 69.4165 34.3188 69.4528 34.2491C69.489 34.1795 69.5413 34.1194 69.6052 34.0738C69.6692 34.0282 69.7431 33.9985 69.8208 33.987C69.8985 33.9756 69.9778 33.9827 70.0522 34.0078C70.7217 34.1839 71.4111 34.2723 72.1033 34.271C72.6283 34.2716 73.1521 34.2217 73.6676 34.1221C73.7402 34.108 73.8151 34.1103 73.8867 34.1289C73.9583 34.1475 74.0249 34.1818 74.0815 34.2294C74.1382 34.277 74.1835 34.3367 74.2141 34.404C74.2447 34.4714 74.2599 34.5447 74.2586 34.6187C74.4125 40.0467 74.9141 52.5812 75.0432 57.6815C75.0509 58.1539 75.0327 58.6264 74.9886 59.0968Z"
      fill="white" />
    <path
      d="M64.8375 29.3487C64.8656 29.4106 64.87 29.4807 64.8498 29.5457C64.8297 29.6107 64.7865 29.666 64.7283 29.7013C64.2317 30.0191 63.7102 30.3618 63.3675 30.5654C62.0168 31.4196 60.661 32.2638 59.3003 33.1279C58.173 33.8381 57.0506 34.5582 55.9233 35.2733C55.4267 34.0566 54.9003 32.8399 54.3838 31.6281C56.549 30.183 58.749 28.6882 60.8994 27.2331L60.9242 27.2083L61.8231 26.6074C62.1508 26.3839 63.0994 25.778 63.74 25.4006C63.7861 25.3751 63.8384 25.363 63.891 25.3656C63.9436 25.3682 63.9945 25.3854 64.0378 25.4154C64.0812 25.4453 64.1153 25.4867 64.1364 25.535C64.1575 25.5833 64.1647 25.6365 64.1572 25.6886C64.0283 26.9486 64.2645 28.2191 64.8375 29.3487Z"
      fill="white" />
    <path
      d="M48.4693 40.0808C41.0747 44.5503 34.1568 49.5165 27.2191 54.3485C22.9085 57.3282 18.6029 60.4221 14.3072 63.4664C14.0638 63.6451 13.8105 63.8239 13.5622 63.9977C12.6547 64.5355 11.5994 64.7703 10.5495 64.6681C9.49951 64.5659 8.50937 64.132 7.72255 63.4293C6.93574 62.7266 6.39314 61.7916 6.17339 60.7598C5.95365 59.728 6.06817 58.6531 6.50037 57.6907C5.9243 59.4835 8.19879 61.0081 9.79789 59.7616C11.541 58.7287 13.2742 57.6907 15.0173 56.6429C25.6995 50.2216 35.6219 44.0686 46.8006 36.6641L48.4693 40.0808Z"
      fill="white" />
    <path
      d="M75.5102 26.2109C75.5096 26.7229 75.4081 27.2297 75.2116 27.7024C75.0151 28.1751 74.7274 28.6045 74.3649 28.9661C74.0024 29.3276 73.5723 29.6142 73.0991 29.8095C72.6258 30.0048 72.1188 30.105 71.6068 30.1044C70.5806 30.1031 69.5963 29.6973 68.8674 28.9749C68.1385 28.2525 67.7238 27.2719 67.7134 26.2457V26.2109C67.7134 25.699 67.8142 25.192 68.0101 24.7191C68.206 24.2461 68.4932 23.8163 68.8552 23.4543C69.2172 23.0923 69.647 22.8052 70.1199 22.6092C70.5929 22.4133 71.0999 22.3125 71.6118 22.3125C72.1237 22.3125 72.6307 22.4133 73.1037 22.6092C73.5766 22.8052 74.0064 23.0923 74.3684 23.4543C74.7304 23.8163 75.0176 24.2461 75.2135 24.7191C75.4094 25.192 75.5102 25.699 75.5102 26.2109Z"
      fill="white" />
    <path
      d="M200.632 50.6193H185.977C181.313 50.6193 176.841 48.7666 173.543 45.4688C170.245 42.1709 168.392 37.6981 168.392 33.0342V15.5732C168.392 15.5676 168.393 15.562 168.396 15.5568C168.398 15.5516 168.401 15.547 168.405 15.5432C168.41 15.5395 168.415 15.5367 168.42 15.535C168.425 15.5333 168.431 15.5328 168.437 15.5335H173.964C173.975 15.5335 173.985 15.5377 173.992 15.5452C174 15.5526 174.004 15.5627 174.004 15.5732V33.0342C174.004 36.2098 175.265 39.2552 177.511 41.5007C179.756 43.7461 182.802 45.0076 185.977 45.0076H200.632C200.644 45.0076 200.656 45.0123 200.664 45.0207C200.672 45.0291 200.677 45.0404 200.677 45.0523V50.5796C200.676 50.5906 200.671 50.6007 200.662 50.6081C200.654 50.6154 200.643 50.6194 200.632 50.6193Z"
      fill="white" />
    <path
      d="M150.807 15.5332H145.275C145.253 15.5332 145.235 15.551 145.235 15.5729V50.5843C145.235 50.6062 145.253 50.624 145.275 50.624H150.807C150.829 50.624 150.847 50.6062 150.847 50.5843V15.5729C150.847 15.551 150.829 15.5332 150.807 15.5332Z"
      fill="white" />
    <path
      d="M297.968 33.456C296.732 31.5639 295.048 30.2976 293.261 30.2678C293.254 30.2691 293.247 30.2684 293.24 30.2656C293.234 30.2628 293.228 30.2582 293.224 30.2523C293.221 30.2464 293.219 30.2395 293.219 30.2325C293.219 30.2255 293.222 30.2188 293.226 30.2131C294.052 28.5287 294.396 26.6481 294.219 24.7802C293.722 19.4813 289.074 15.5332 283.75 15.5332H266.22C266.209 15.5332 266.199 15.5374 266.192 15.5448C266.184 15.5523 266.18 15.5624 266.18 15.5729V50.5793C266.179 50.5847 266.18 50.5903 266.181 50.5955C266.183 50.6007 266.186 50.6054 266.19 50.6093C266.194 50.6131 266.198 50.616 266.204 50.6177C266.209 50.6194 266.214 50.6199 266.22 50.619H289.824C292.521 50.6151 295.106 49.5424 297.013 47.6361C298.92 45.7297 299.994 43.145 300 40.4484C299.998 37.9723 299.294 35.5475 297.968 33.456ZM271.832 21.1449H283.845C286.248 21.1449 288.419 22.898 288.627 25.2917C288.687 25.9266 288.614 26.567 288.412 27.1719C288.21 27.7767 287.883 28.3326 287.453 28.8036C287.024 29.2747 286.5 29.6505 285.916 29.9069C285.332 30.1634 284.701 30.2948 284.063 30.2926H271.832C271.82 30.2926 271.808 30.2879 271.8 30.2795C271.792 30.2711 271.787 30.2598 271.787 30.2479V21.1847C271.788 21.1737 271.793 21.1636 271.802 21.1562C271.81 21.1489 271.821 21.1449 271.832 21.1449ZM289.591 45.0073H271.832C271.826 45.008 271.82 45.0075 271.815 45.0058C271.809 45.0041 271.804 45.0013 271.8 44.9976C271.796 44.9938 271.793 44.9892 271.79 44.984C271.788 44.9788 271.787 44.9732 271.787 44.9676V35.9192C271.788 35.9083 271.793 35.8981 271.802 35.8908C271.81 35.8835 271.821 35.8794 271.832 35.8795H289.824C290.457 35.8813 291.082 36.0143 291.661 36.2701C292.239 36.5259 292.758 36.899 293.185 37.3657C293.612 37.8325 293.938 38.3827 294.142 38.9817C294.345 39.5807 294.422 40.2154 294.368 40.8457C294.154 43.2592 292.009 45.0073 289.591 45.0073Z"
      fill="white" />
    <path
      d="M110.194 15.5332C105.528 15.5332 101.054 17.3864 97.7555 20.6852C94.4568 23.984 92.6035 28.4581 92.6035 33.1233V50.5793C92.6035 50.5898 92.6077 50.5999 92.6152 50.6074C92.6226 50.6148 92.6327 50.619 92.6432 50.619H98.1706C98.1762 50.6197 98.1819 50.6192 98.1873 50.6176C98.1927 50.6159 98.1977 50.6131 98.2019 50.6093C98.2062 50.6055 98.2095 50.6009 98.2118 50.5957C98.2141 50.5906 98.2153 50.585 98.2153 50.5793V35.9192C98.2163 35.9091 98.2209 35.8996 98.2281 35.8923C98.2353 35.8851 98.2448 35.8806 98.255 35.8795H122.038C122.048 35.8795 122.059 35.8837 122.066 35.8911C122.073 35.8986 122.078 35.9087 122.078 35.9192V50.5793C122.078 50.585 122.079 50.5906 122.081 50.5957C122.083 50.6009 122.087 50.6055 122.091 50.6093C122.095 50.6131 122.1 50.6159 122.106 50.6176C122.111 50.6192 122.117 50.6197 122.122 50.619H127.63C127.635 50.6199 127.641 50.6194 127.646 50.6177C127.651 50.616 127.656 50.6131 127.66 50.6093C127.664 50.6054 127.666 50.6007 127.668 50.5955C127.67 50.5903 127.67 50.5847 127.669 50.5793V15.5729C127.669 15.5624 127.665 15.5523 127.658 15.5448C127.65 15.5374 127.64 15.5332 127.63 15.5332H110.194ZM122.038 30.2926H98.6076C98.6008 30.2928 98.594 30.2914 98.5878 30.2885C98.5816 30.2857 98.5762 30.2815 98.5719 30.2762C98.5676 30.2709 98.5645 30.2648 98.563 30.2581C98.5614 30.2515 98.5614 30.2446 98.5629 30.238C99.2074 27.6505 100.698 25.3527 102.798 23.7097C104.898 22.0667 107.487 21.1727 110.154 21.1698H122.038C122.048 21.1698 122.059 21.174 122.066 21.1814C122.073 21.1889 122.078 21.199 122.078 21.2095V30.2479C122.078 30.2535 122.078 30.2592 122.076 30.2646C122.074 30.27 122.072 30.275 122.068 30.2793C122.064 30.2835 122.059 30.2869 122.054 30.2892C122.049 30.2915 122.044 30.2926 122.038 30.2926Z"
      fill="white" />
    <path
      d="M231.05 15.5332H213.589C213.578 15.5331 213.567 15.5372 213.559 15.5445C213.55 15.5518 213.545 15.562 213.544 15.5729V50.5793C213.544 50.585 213.545 50.5906 213.547 50.5957C213.55 50.6009 213.553 50.6055 213.557 50.6093C213.562 50.6131 213.566 50.6159 213.572 50.6176C213.577 50.6192 213.583 50.6197 213.589 50.619H219.116C219.127 50.619 219.137 50.6148 219.144 50.6074C219.152 50.5999 219.156 50.5898 219.156 50.5793V35.9192C219.157 35.9083 219.162 35.8981 219.17 35.8908C219.179 35.8835 219.189 35.8794 219.2 35.8795H242.978C242.989 35.8794 243 35.8835 243.008 35.8908C243.017 35.8981 243.022 35.9083 243.023 35.9192V50.5793C243.022 50.5847 243.023 50.5903 243.024 50.5955C243.026 50.6007 243.029 50.6054 243.033 50.6093C243.037 50.6131 243.041 50.616 243.047 50.6177C243.052 50.6194 243.057 50.6199 243.063 50.619H248.59C248.596 50.6197 248.601 50.6192 248.607 50.6176C248.612 50.6159 248.617 50.6131 248.621 50.6093C248.626 50.6055 248.629 50.6009 248.631 50.5957C248.634 50.5906 248.635 50.585 248.635 50.5793V33.1134C248.635 30.8043 248.18 28.5178 247.296 26.3846C246.412 24.2513 245.117 22.3131 243.484 20.6806C241.851 19.048 239.912 17.7532 237.779 16.87C235.645 15.9868 233.359 15.5326 231.05 15.5332ZM219.156 30.2231V21.1847C219.157 21.1737 219.162 21.1636 219.17 21.1562C219.179 21.1489 219.189 21.1449 219.2 21.145H231.094C233.758 21.1503 236.344 22.0455 238.442 23.6884C240.539 25.3313 242.027 27.6278 242.67 30.2131C242.672 30.2194 242.672 30.2259 242.671 30.2321C242.669 30.2384 242.667 30.2443 242.663 30.2495C242.659 30.2547 242.654 30.259 242.649 30.2622C242.643 30.2653 242.637 30.2672 242.631 30.2678H219.2C219.189 30.2678 219.177 30.2631 219.169 30.2547C219.16 30.2463 219.156 30.2349 219.156 30.2231Z"
      fill="white" />
  </g>
  <defs>
    <clipPath id="clip0_1180_10861">
      <rect width="300" height="66.1541" fill="white" />
    </clipPath>
  </defs>
</svg>
